<svg xmlns="http://www.w3.org/2000/svg" xmlns:xlink="http://www.w3.org/1999/xlink" width="114" height="30" viewBox="0 0 114 30">
  <defs>
    <linearGradient id="linear-gradient" y1="0.5" x2="1" y2="0.5" gradientUnits="objectBoundingBox">
      <stop offset="0" stop-color="#42a5f5"/>
      <stop offset="1" stop-color="#1e88e5"/>
    </linearGradient>
    <linearGradient id="linear-gradient-2" y1="0.5" x2="1" y2="0.5" gradientUnits="objectBoundingBox">
      <stop offset="0" stop-color="#bbdefb"/>
      <stop offset="1" stop-color="#64b5f6"/>
    </linearGradient>
  </defs>
  <g id="Group_2" data-name="Group 2" transform="translate(-202 -15)">
    <g id="conversation" transform="translate(201 14)">
      <g id="Group_1" data-name="Group 1">
        <path id="Path_1" data-name="Path 1" d="M29.376,25.749a11,11,0,1,0-3.627,3.627l3.879,1.552a1,1,0,0,0,1.3-1.3Z" fill="url(#linear-gradient)"/>
        <path id="Path_2" data-name="Path 2" d="M12,1A11,11,0,0,0,2.624,17.749L1.071,21.628a1,1,0,0,0,1.3,1.3l3.879-1.552A11,11,0,1,0,12,1Z" fill="url(#linear-gradient-2)"/>
        <circle id="Ellipse_1" data-name="Ellipse 1" cx="1" cy="1" r="1" transform="translate(11 11)" fill="url(#linear-gradient)"/>
        <circle id="Ellipse_2" data-name="Ellipse 2" cx="1" cy="1" r="1" transform="translate(15 11)" fill="url(#linear-gradient)"/>
        <circle id="Ellipse_3" data-name="Ellipse 3" cx="1" cy="1" r="1" transform="translate(7 11)" fill="url(#linear-gradient)"/>
      </g>
    </g>
    <text id="Forumx" transform="translate(241 39)" fill="#436380" font-size="22" font-family="Roboto-Medium, Roboto" font-weight="500"><tspan x="0" y="0">Forumx</tspan></text>
  </g>
</svg>
